<?xml version="1.0" encoding="iso-8859-1"?>
<!-- Generator: Adobe Illustrator 16.0.0, SVG Export Plug-In . SVG Version: 6.00 Build 0)  -->
<!DOCTYPE svg PUBLIC "-//W3C//DTD SVG 1.1//EN" "http://www.w3.org/Graphics/SVG/1.1/DTD/svg11.dtd">
<svg version="1.1" id="Layer_1" xmlns="http://www.w3.org/2000/svg" xmlns:xlink="http://www.w3.org/1999/xlink" x="0px" y="0px"
	 width="275.422px" height="161.932px" viewBox="0 0 275.422 161.932" style="enable-background:new 0 0 275.422 161.932;"
	 xml:space="preserve">
<g>
	<g>
		<linearGradient id="SVGID_1_" gradientUnits="userSpaceOnUse" x1="187.6724" y1="108.3108" x2="187.6724" y2="62.033">
			<stop  offset="0" style="stop-color:#e14"/>
			<stop  offset="1" style="stop-color:#e51"/>
		</linearGradient>
		<path style="fill:url(#SVGID_1_);" d="M175.78,62.032h10.659c7.8,0,11.7,4.527,11.7,13.585c0,2.687-0.422,4.994-1.268,6.922
			c-0.847,1.929-2.33,3.478-4.453,4.646l7.149,21.125h-7.021l-6.176-19.76h-3.965v19.76h-6.629V62.032H175.78z M182.409,82.701
			h3.771c1.17,0,2.101-0.162,2.795-0.487c0.691-0.325,1.225-0.79,1.593-1.397c0.367-0.605,0.617-1.354,0.747-2.241
			c0.13-0.889,0.195-1.917,0.195-3.089c0-1.17-0.065-2.198-0.195-3.087c-0.13-0.888-0.4-1.646-0.812-2.274
			c-0.412-0.627-0.984-1.094-1.722-1.397c-0.737-0.303-1.713-0.455-2.926-0.455h-3.444v14.429H182.409z"/>
		<linearGradient id="SVGID_2_" gradientUnits="userSpaceOnUse" x1="213.3491" y1="108.3118" x2="213.3491" y2="62.033">
			<stop  offset="0" style="stop-color:#e14"/>
			<stop  offset="1" style="stop-color:#e51"/>
		</linearGradient>
		<path style="fill:url(#SVGID_2_);" d="M203.469,62.032h19.76v6.239h-13.13v13.585h11.44v6.24h-11.44v13.585h13.13v6.63h-19.76
			V62.032z"/>
		<linearGradient id="SVGID_3_" gradientUnits="userSpaceOnUse" x1="237.6265" y1="108.3118" x2="237.6265" y2="62.033">
			<stop  offset="0" style="stop-color:#e14"/>
			<stop  offset="1" style="stop-color:#e51"/>
		</linearGradient>
		<path style="fill:url(#SVGID_3_);" d="M234.864,62.032h5.525l10.335,46.279h-6.63l-1.95-9.943h-9.035l-1.95,9.943h-6.63
			L234.864,62.032z M237.659,75.356h-0.13l-3.25,16.771h6.63L237.659,75.356z"/>
		<linearGradient id="SVGID_4_" gradientUnits="userSpaceOnUse" x1="264.6978" y1="108.3118" x2="264.6978" y2="62.033">
			<stop  offset="0" style="stop-color:#e14"/>
			<stop  offset="1" style="stop-color:#e51"/>
		</linearGradient>
		<path style="fill:url(#SVGID_4_);" d="M253.973,62.032h9.814c3.771,0,6.65,1.051,8.646,3.151c1.991,2.103,2.989,5.038,2.989,8.809
			v21.645c0,4.334-1.051,7.529-3.151,9.588c-2.103,2.06-5.125,3.087-9.067,3.087h-9.229L253.973,62.032L253.973,62.032z
			 M260.603,102.071h3.056c1.862,0,3.186-0.465,3.965-1.396s1.17-2.394,1.17-4.387V73.992c0-1.82-0.369-3.229-1.104-4.226
			c-0.737-0.997-2.08-1.495-4.03-1.495h-3.055L260.603,102.071L260.603,102.071z"/>
	</g>
	<g>
		<g>
			<defs>
				
					<rect id="SVGID_5_" x="8.974" y="9.229" transform="matrix(-0.9909 0.1344 -0.1344 -0.9909 175.0364 150.1168)" width="146.953" height="143.476"/>
			</defs>
			<clipPath id="SVGID_6_">
				<use xlink:href="#SVGID_5_"  style="overflow:visible;"/>
			</clipPath>
			
				<linearGradient id="SVGID_7_" gradientUnits="userSpaceOnUse" x1="107.1313" y1="176.1702" x2="75.0044" y2="36.0757" gradientTransform="matrix(1 0 0 -1 -8.3599 185.9868)">
				<stop  offset="0" style="stop-color:#e14"/>
				<stop  offset="1" style="stop-color:#e51"/>
			</linearGradient>
			<polygon style="clip-path:url(#SVGID_6_);fill:url(#SVGID_7_);" points="164.911,142.176 19.288,161.932 0,19.755 145.624,0 			
				"/>
		</g>
		<g>
			<defs>
				
					<rect id="SVGID_8_" x="8.974" y="9.229" transform="matrix(-0.9909 0.1344 -0.1344 -0.9909 175.0364 150.1168)" width="146.953" height="143.476"/>
			</defs>
			<clipPath id="SVGID_9_">
				<use xlink:href="#SVGID_8_"  style="overflow:visible;"/>
			</clipPath>
			<path style="clip-path:url(#SVGID_9_);fill:#FFFFFF;" d="M11.789,68.271h-7.67v-6.239h21.97v6.239h-7.67v40.04h-6.63V68.271z"/>
		</g>
		<g>
			<defs>
				
					<rect id="SVGID_10_" x="8.974" y="9.229" transform="matrix(-0.9909 0.1344 -0.1344 -0.9909 175.0364 150.1168)" width="146.953" height="143.476"/>
			</defs>
			<clipPath id="SVGID_11_">
				<use xlink:href="#SVGID_10_"  style="overflow:visible;"/>
			</clipPath>
			<path style="clip-path:url(#SVGID_11_);fill:#FFFFFF;" d="M29.013,62.032h10.66c7.8,0,11.7,4.527,11.7,13.585
				c0,2.687-0.422,4.994-1.268,6.922c-0.845,1.929-2.33,3.478-4.453,4.646l7.15,21.125h-7.02l-6.175-19.76h-3.965v19.76h-6.63
				L29.013,62.032L29.013,62.032z M35.643,82.701h3.77c1.17,0,2.101-0.162,2.795-0.487c0.693-0.325,1.224-0.79,1.593-1.397
				c0.368-0.605,0.617-1.354,0.747-2.241c0.13-0.889,0.195-1.917,0.195-3.089c0-1.17-0.065-2.198-0.195-3.087
				c-0.13-0.888-0.401-1.646-0.812-2.274c-0.412-0.627-0.986-1.094-1.722-1.397c-0.737-0.303-1.712-0.455-2.925-0.455h-3.445
				L35.643,82.701L35.643,82.701z"/>
		</g>
		<g>
			<defs>
				
					<rect id="SVGID_12_" x="8.974" y="9.229" transform="matrix(-0.9909 0.1344 -0.1344 -0.9909 175.0364 150.1168)" width="146.953" height="143.476"/>
			</defs>
			<clipPath id="SVGID_13_">
				<use xlink:href="#SVGID_12_"  style="overflow:visible;"/>
			</clipPath>
			<path style="clip-path:url(#SVGID_13_);fill:#FFFFFF;" d="M56.702,62.032h19.76v6.239h-13.13v13.585h11.44v6.24h-11.44v13.585
				h13.13v6.63h-19.76V62.032z"/>
		</g>
		<g>
			<defs>
				
					<rect id="SVGID_14_" x="8.974" y="9.229" transform="matrix(-0.9909 0.1344 -0.1344 -0.9909 175.0364 150.1168)" width="146.953" height="143.476"/>
			</defs>
			<clipPath id="SVGID_15_">
				<use xlink:href="#SVGID_14_"  style="overflow:visible;"/>
			</clipPath>
			<path style="clip-path:url(#SVGID_15_);fill:#FFFFFF;" d="M80.492,62.032h6.37l10.01,27.884h0.13V62.032h6.63v46.279h-6.24
				l-10.14-27.819h-0.13v27.819h-6.63V62.032z"/>
		</g>
		<g>
			<defs>
				
					<rect id="SVGID_16_" x="8.974" y="9.229" transform="matrix(-0.9909 0.1344 -0.1344 -0.9909 175.0364 150.1168)" width="146.953" height="143.476"/>
			</defs>
			<clipPath id="SVGID_17_">
				<use xlink:href="#SVGID_16_"  style="overflow:visible;"/>
			</clipPath>
			<path style="clip-path:url(#SVGID_17_);fill:#FFFFFF;" d="M109.611,62.032h9.815c3.77,0,6.651,1.051,8.645,3.151
				c1.992,2.103,2.99,5.038,2.99,8.809v21.645c0,4.334-1.051,7.529-3.152,9.588c-2.104,2.06-5.125,3.087-9.068,3.087h-9.23V62.032z
				 M116.241,102.071h3.055c1.863,0,3.185-0.465,3.964-1.396c0.78-0.932,1.17-2.394,1.17-4.387V73.992
				c0-1.82-0.368-3.229-1.104-4.226c-0.737-0.997-2.08-1.495-4.03-1.495h-3.055V102.071z"/>
		</g>
		<g>
			<defs>
				
					<rect id="SVGID_18_" x="8.974" y="9.229" transform="matrix(-0.9909 0.1344 -0.1344 -0.9909 175.0364 150.1168)" width="146.953" height="143.476"/>
			</defs>
			<clipPath id="SVGID_19_">
				<use xlink:href="#SVGID_18_"  style="overflow:visible;"/>
			</clipPath>
			<path style="clip-path:url(#SVGID_19_);fill:#FFFFFF;" d="M158.75,75.356h-6.631v-1.495c0-1.516-0.356-2.826-1.072-3.932
				c-0.715-1.104-1.916-1.658-3.607-1.658c-0.909,0-1.656,0.174-2.242,0.521c-0.584,0.347-1.039,0.791-1.365,1.333
				c-0.324,0.542-0.552,1.17-0.682,1.885c-0.131,0.715-0.195,1.463-0.195,2.243c0,0.91,0.033,1.68,0.099,2.308
				c0.063,0.628,0.228,1.17,0.487,1.625s0.64,0.856,1.138,1.203c0.497,0.347,1.18,0.693,2.047,1.04l5.069,2.015
				c1.474,0.564,2.666,1.226,3.576,1.982c0.909,0.759,1.613,1.647,2.111,2.665c0.498,1.019,0.834,2.188,1.008,3.511
				c0.172,1.322,0.26,2.827,0.26,4.519c0,1.948-0.194,3.76-0.584,5.427c-0.391,1.669-1.031,3.099-1.918,4.29
				c-0.889,1.191-2.07,2.135-3.543,2.828c-1.474,0.69-3.271,1.039-5.395,1.039c-1.604,0-3.1-0.282-4.484-0.846
				c-1.389-0.562-2.58-1.333-3.576-2.308s-1.787-2.134-2.373-3.478c-0.584-1.344-0.877-2.796-0.877-4.354v-2.471h6.63v2.08
				c0,1.214,0.357,2.308,1.072,3.282c0.715,0.976,1.918,1.463,3.607,1.463c1.126,0,2.004-0.162,2.633-0.487
				c0.627-0.325,1.104-0.779,1.43-1.365c0.324-0.585,0.529-1.311,0.617-2.178c0.086-0.865,0.131-1.819,0.131-2.859
				c0-1.213-0.045-2.21-0.131-2.99c-0.088-0.778-0.271-1.407-0.553-1.885c-0.282-0.477-0.672-0.866-1.17-1.17
				c-0.498-0.303-1.16-0.628-1.982-0.975l-4.744-1.951c-2.86-1.17-4.777-2.719-5.753-4.646c-0.975-1.928-1.462-4.344-1.462-7.248
				c0-1.731,0.237-3.38,0.715-4.939c0.477-1.561,1.181-2.903,2.112-4.03c0.932-1.126,2.113-2.024,3.543-2.698
				c1.43-0.671,3.098-1.007,5.006-1.007c1.646,0,3.151,0.305,4.518,0.91c1.363,0.607,2.533,1.408,3.51,2.405
				c0.977,0.998,1.723,2.111,2.243,3.348c0.52,1.235,0.778,2.502,0.778,3.802V75.356L158.75,75.356z"/>
		</g>
	</g>
</g>
</svg>
